<mxfile host="65bd71144e">
    <diagram id="OoJzDNcFAZMYChGNr-lj" name="Page-1">
        <mxGraphModel dx="941" dy="649" grid="0" gridSize="15" guides="1" tooltips="1" connect="1" arrows="1" fold="1" page="1" pageScale="1" pageWidth="4681" pageHeight="3300" background="none" math="0" shadow="0">
            <root>
                <mxCell id="0"/>
                <mxCell id="1" parent="0"/>
                <mxCell id="193" value="" style="shape=internalStorage;whiteSpace=wrap;html=1;backgroundOutline=1;fontSize=11;dx=5;dy=5;" vertex="1" parent="1">
                    <mxGeometry x="1604" y="1558" width="678" height="368" as="geometry"/>
                </mxCell>
                <mxCell id="117" value="" style="shape=internalStorage;whiteSpace=wrap;html=1;backgroundOutline=1;fontSize=11;dx=5;dy=5;" vertex="1" parent="1">
                    <mxGeometry x="1829" y="1027" width="228" height="56" as="geometry"/>
                </mxCell>
                <mxCell id="44" value="User Interaction" style="swimlane;whiteSpace=wrap;html=1;fontSize=8;fillColor=#17121c;" parent="1" vertex="1">
                    <mxGeometry x="1048" y="1423" width="375" height="853" as="geometry">
                        <mxRectangle x="45" y="198" width="96" height="23" as="alternateBounds"/>
                    </mxGeometry>
                </mxCell>
                <mxCell id="45" value="Home Page" style="swimlane;whiteSpace=wrap;html=1;fontSize=8;" parent="44" vertex="1">
                    <mxGeometry x="22.5" y="40" width="330" height="177" as="geometry">
                        <mxRectangle x="22.5" y="40" width="90" height="30" as="alternateBounds"/>
                    </mxGeometry>
                </mxCell>
                <mxCell id="47" value="Sliding Images #1" style="rounded=1;whiteSpace=wrap;html=1;fontSize=8;aspect=fixed;" parent="45" vertex="1">
                    <mxGeometry x="15" y="37.5" width="300" height="22.5" as="geometry"/>
                </mxCell>
                <mxCell id="48" value="Sliding Images #2" style="rounded=1;whiteSpace=wrap;html=1;fontSize=8;aspect=fixed;" parent="45" vertex="1">
                    <mxGeometry x="15" y="86.25" width="300" height="22.5" as="geometry"/>
                </mxCell>
                <mxCell id="49" value="Map Link" style="rounded=1;whiteSpace=wrap;html=1;fontSize=8;aspect=fixed;" parent="45" vertex="1">
                    <mxGeometry x="15" y="135" width="300" height="22.5" as="geometry"/>
                </mxCell>
                <mxCell id="52" value="Map Page" style="swimlane;whiteSpace=wrap;html=1;fontSize=8;" parent="44" vertex="1">
                    <mxGeometry x="22.5" y="251" width="330" height="587" as="geometry">
                        <mxRectangle x="22.5" y="251" width="72" height="23" as="alternateBounds"/>
                    </mxGeometry>
                </mxCell>
                <mxCell id="55" value="&lt;font style=&quot;font-size: 8px;&quot;&gt;Navbar&lt;/font&gt;" style="swimlane;whiteSpace=wrap;html=1;startSize=23;" parent="52" vertex="1">
                    <mxGeometry x="15" y="42" width="300" height="399" as="geometry">
                        <mxRectangle x="15" y="42" width="62" height="26" as="alternateBounds"/>
                    </mxGeometry>
                </mxCell>
                <mxCell id="54" value="&lt;font style=&quot;font-size: 8px;&quot;&gt;Header&lt;/font&gt;" style="rounded=1;whiteSpace=wrap;html=1;" parent="55" vertex="1">
                    <mxGeometry x="12.5" y="40" width="275" height="22.5" as="geometry"/>
                </mxCell>
                <mxCell id="62" value="Menus" style="swimlane;whiteSpace=wrap;html=1;fontSize=8;" parent="55" vertex="1">
                    <mxGeometry x="12.5" y="78" width="275" height="306" as="geometry">
                        <mxRectangle x="12.5" y="78" width="60" height="23" as="alternateBounds"/>
                    </mxGeometry>
                </mxCell>
                <mxCell id="65" value="Account" style="rounded=1;whiteSpace=wrap;html=1;fontSize=8;fillColor=#18141D;" parent="62" vertex="1">
                    <mxGeometry x="31" y="37" width="213" height="22.5" as="geometry"/>
                </mxCell>
                <mxCell id="66" value="Itineraries" style="rounded=1;whiteSpace=wrap;html=1;fontSize=8;fillColor=#18141D;" parent="62" vertex="1">
                    <mxGeometry x="31" y="75" width="213" height="22.5" as="geometry"/>
                </mxCell>
                <mxCell id="67" value="News" style="rounded=1;whiteSpace=wrap;html=1;fontSize=8;fillColor=#18141D;" parent="62" vertex="1">
                    <mxGeometry x="31" y="113" width="213" height="22.5" as="geometry"/>
                </mxCell>
                <mxCell id="68" value="Accessibility" style="rounded=1;whiteSpace=wrap;html=1;fontSize=8;fillColor=#18141D;" parent="62" vertex="1">
                    <mxGeometry x="31" y="151" width="213" height="22.5" as="geometry"/>
                </mxCell>
                <mxCell id="69" value="Settings" style="rounded=1;whiteSpace=wrap;html=1;fontSize=8;fillColor=#18141D;" parent="62" vertex="1">
                    <mxGeometry x="31" y="189" width="213" height="22.5" as="geometry"/>
                </mxCell>
                <mxCell id="70" value="Presentation" style="rounded=1;whiteSpace=wrap;html=1;fontSize=8;fillColor=#18141D;" parent="62" vertex="1">
                    <mxGeometry x="31" y="227" width="213" height="22.5" as="geometry"/>
                </mxCell>
                <mxCell id="71" value="Single Pin" style="rounded=1;whiteSpace=wrap;html=1;fontSize=8;fillColor=#18141D;" parent="62" vertex="1">
                    <mxGeometry x="31" y="265" width="213" height="22.5" as="geometry"/>
                </mxCell>
                <mxCell id="72" value="Reset Buttons" style="swimlane;whiteSpace=wrap;html=1;fontSize=8;fillColor=#18141D;" parent="52" vertex="1">
                    <mxGeometry x="15" y="458" width="300" height="114" as="geometry">
                        <mxRectangle x="15" y="458" width="115" height="23" as="alternateBounds"/>
                    </mxGeometry>
                </mxCell>
                <mxCell id="74" value="&lt;font style=&quot;font-size: 8px;&quot;&gt;Clear All&lt;/font&gt;" style="rounded=1;whiteSpace=wrap;html=1;" parent="72" vertex="1">
                    <mxGeometry x="12.5" y="35" width="275" height="22.5" as="geometry"/>
                </mxCell>
                <mxCell id="73" value="&lt;font style=&quot;font-size: 8px;&quot;&gt;Recenter Map&lt;/font&gt;" style="rounded=1;whiteSpace=wrap;html=1;" parent="72" vertex="1">
                    <mxGeometry x="12.5" y="73.75" width="275" height="22.5" as="geometry"/>
                </mxCell>
                <mxCell id="78" value="" style="edgeStyle=elbowEdgeStyle;endArrow=classic;html=1;endSize=8;startSize=8;fontSize=8;exitX=0;exitY=0.25;exitDx=0;exitDy=0;entryX=1;entryY=0.5;entryDx=0;entryDy=0;snapToPoint=0;noJump=0;strokeColor=#3769C2;rounded=1;" parent="1" source="47" target="80" edge="1">
                    <mxGeometry width="50" height="50" relative="1" as="geometry">
                        <mxPoint x="1436" y="1512" as="sourcePoint"/>
                        <mxPoint x="1527" y="1460" as="targetPoint"/>
                    </mxGeometry>
                </mxCell>
                <mxCell id="80" value="Rendering and sliding #1" style="rounded=0;whiteSpace=wrap;html=1;fontSize=8;fillColor=#18141D;" parent="1" vertex="1">
                    <mxGeometry x="772" y="1455" width="120" height="26" as="geometry"/>
                </mxCell>
                <mxCell id="85" value="Image Loading" style="rounded=0;whiteSpace=wrap;html=1;fontSize=8;fillColor=#18141D;" parent="1" vertex="1">
                    <mxGeometry x="772" y="1510.5" width="120" height="26" as="geometry"/>
                </mxCell>
                <mxCell id="89" value="Rendering and sliding #2" style="rounded=0;whiteSpace=wrap;html=1;fontSize=8;fillColor=#18141D;" parent="1" vertex="1">
                    <mxGeometry x="772" y="1566" width="120" height="26" as="geometry"/>
                </mxCell>
                <mxCell id="88" value="" style="edgeStyle=elbowEdgeStyle;endArrow=classic;html=1;endSize=8;startSize=8;fontSize=8;exitX=0;exitY=0.75;exitDx=0;exitDy=0;snapToPoint=0;noJump=0;strokeColor=#3769C2;entryX=1;entryY=0.5;entryDx=0;entryDy=0;rounded=1;" parent="1" source="48" target="89" edge="1">
                    <mxGeometry width="50" height="50" relative="1" as="geometry">
                        <mxPoint x="1386" y="1568" as="sourcePoint"/>
                        <mxPoint x="1523" y="1647" as="targetPoint"/>
                    </mxGeometry>
                </mxCell>
                <mxCell id="90" value="" style="edgeStyle=elbowEdgeStyle;endArrow=classic;html=1;endSize=8;startSize=8;fontSize=8;exitX=0;exitY=0.5;exitDx=0;exitDy=0;snapToPoint=0;noJump=0;strokeColor=#3769C2;entryX=1;entryY=0.5;entryDx=0;entryDy=0;rounded=1;" parent="1" source="49" target="91" edge="1">
                    <mxGeometry width="50" height="50" relative="1" as="geometry">
                        <mxPoint x="1399.8999999999999" y="1621.0024999999998" as="sourcePoint"/>
                        <mxPoint x="1519" y="1643" as="targetPoint"/>
                    </mxGeometry>
                </mxCell>
                <mxCell id="91" value="Language Support" style="rounded=0;whiteSpace=wrap;html=1;fontSize=8;fillColor=#18141D;" parent="1" vertex="1">
                    <mxGeometry x="772" y="1620.5" width="120" height="26" as="geometry"/>
                </mxCell>
                <mxCell id="92" value="Features (functions of the website)" style="swimlane;whiteSpace=wrap;html=1;strokeColor=#FFFFFF;fontSize=8;fillColor=#18141D;" parent="1" vertex="1">
                    <mxGeometry x="401" y="514" width="200" height="67" as="geometry"/>
                </mxCell>
                <mxCell id="99" value="" style="endArrow=classic;html=1;fontSize=8;snapToPoint=0;noJump=0;strokeColor=#3769C2;exitX=1;exitY=0.5;exitDx=0;exitDy=0;entryX=0;entryY=0.5;entryDx=0;entryDy=0;rounded=1;" edge="1" parent="1" source="73" target="100">
                    <mxGeometry width="50" height="50" relative="1" as="geometry">
                        <mxPoint x="1201.5" y="2143.5" as="sourcePoint"/>
                        <mxPoint x="1896" y="2171" as="targetPoint"/>
                    </mxGeometry>
                </mxCell>
                <mxCell id="104" value="&lt;span style=&quot;font-size: 8px;&quot;&gt;Remove Everything&lt;/span&gt;" style="swimlane;whiteSpace=wrap;html=1;flipV=1;movable=1;resizable=1;rotatable=1;deletable=1;editable=1;connectable=1;" vertex="1" parent="1">
                    <mxGeometry x="2374" y="1944" width="164" height="248" as="geometry">
                        <mxRectangle x="1251" y="1491" width="110" height="26" as="alternateBounds"/>
                    </mxGeometry>
                </mxCell>
                <mxCell id="106" value="Remove Itinerary" style="rounded=0;whiteSpace=wrap;html=1;fontSize=8;fillColor=#18141D;" vertex="1" parent="104">
                    <mxGeometry x="22" y="188" width="120" height="26" as="geometry"/>
                </mxCell>
                <mxCell id="107" value="Remove Pin" style="rounded=0;whiteSpace=wrap;html=1;fontSize=8;fillColor=#18141D;" vertex="1" parent="104">
                    <mxGeometry x="22" y="146" width="120" height="26" as="geometry"/>
                </mxCell>
                <mxCell id="108" value="Remove Console Pins/Routes" style="rounded=0;whiteSpace=wrap;html=1;fontSize=8;fillColor=#18141D;" vertex="1" parent="104">
                    <mxGeometry x="22" y="103" width="120" height="26" as="geometry"/>
                </mxCell>
                <mxCell id="109" value="Close Menus" style="rounded=0;whiteSpace=wrap;html=1;fontSize=8;fillColor=#18141D;" vertex="1" parent="104">
                    <mxGeometry x="22" y="59" width="120" height="26" as="geometry"/>
                </mxCell>
                <mxCell id="111" value="Toggle Navbar" style="rounded=0;whiteSpace=wrap;html=1;fontSize=8;fillColor=#18141D;" vertex="1" parent="104">
                    <mxGeometry x="22" y="14" width="120" height="26" as="geometry"/>
                </mxCell>
                <mxCell id="112" value="" style="edgeStyle=elbowEdgeStyle;endArrow=classic;html=1;endSize=8;startSize=8;fontSize=8;exitX=1;exitY=0.5;exitDx=0;exitDy=0;snapToPoint=0;noJump=0;strokeColor=#3769C2;entryX=0;entryY=0.5;entryDx=0;entryDy=0;rounded=1;" edge="1" parent="1" source="54" target="111">
                    <mxGeometry width="50" height="50" relative="1" as="geometry">
                        <mxPoint x="1400.5" y="1624.25" as="sourcePoint"/>
                        <mxPoint x="1644" y="1638.5" as="targetPoint"/>
                        <Array as="points">
                            <mxPoint x="1435" y="1874"/>
                        </Array>
                    </mxGeometry>
                </mxCell>
                <mxCell id="113" value="Google Authentication" style="rounded=0;whiteSpace=wrap;html=1;fontSize=8;fillColor=#18141D;" vertex="1" parent="1">
                    <mxGeometry x="1883" y="1042" width="120" height="26" as="geometry"/>
                </mxCell>
                <mxCell id="114" value="" style="edgeStyle=elbowEdgeStyle;endArrow=classic;html=1;endSize=8;startSize=8;fontSize=8;exitX=1;exitY=0.5;exitDx=0;exitDy=0;snapToPoint=0;noJump=0;strokeColor=#3769C2;entryX=0;entryY=0.5;entryDx=0;entryDy=0;rounded=1;" edge="1" parent="1" source="65" target="117">
                    <mxGeometry width="50" height="50" relative="1" as="geometry">
                        <mxPoint x="1175.5" y="1493" as="sourcePoint"/>
                        <mxPoint x="1644" y="1638.5" as="targetPoint"/>
                        <Array as="points">
                            <mxPoint x="1500" y="1469"/>
                        </Array>
                    </mxGeometry>
                </mxCell>
                <mxCell id="116" value="" style="shape=internalStorage;whiteSpace=wrap;html=1;backgroundOutline=1;fontSize=11;dx=5;dy=5;" vertex="1" parent="1">
                    <mxGeometry x="797" y="271" width="222" height="183" as="geometry"/>
                </mxCell>
                <mxCell id="120" value="" style="shape=internalStorage;whiteSpace=wrap;html=1;backgroundOutline=1;fontSize=11;dx=5;dy=5;" vertex="1" parent="1">
                    <mxGeometry x="1829" y="1099" width="228" height="308" as="geometry"/>
                </mxCell>
                <mxCell id="121" value="Lay Route" style="rounded=0;whiteSpace=wrap;html=1;fontSize=8;fillColor=#18141D;" vertex="1" parent="1">
                    <mxGeometry x="1883" y="1117" width="120" height="26" as="geometry"/>
                </mxCell>
                <mxCell id="122" value="" style="edgeStyle=elbowEdgeStyle;elbow=vertical;endArrow=classic;html=1;endSize=8;startSize=8;fontSize=8;exitX=1;exitY=0.5;exitDx=0;exitDy=0;snapToPoint=0;noJump=0;strokeColor=#3769C2;entryX=1;entryY=0.5;entryDx=0;entryDy=0;" edge="1" parent="1" source="121" target="123">
                    <mxGeometry width="50" height="50" relative="1" as="geometry">
                        <mxPoint x="1611.0000000000002" y="1341.25" as="sourcePoint"/>
                        <mxPoint x="2083" y="1280" as="targetPoint"/>
                        <Array as="points">
                            <mxPoint x="2021" y="1154"/>
                        </Array>
                    </mxGeometry>
                </mxCell>
                <mxCell id="123" value="Remove Route" style="rounded=0;whiteSpace=wrap;html=1;fontSize=8;fillColor=#18141D;" vertex="1" parent="1">
                    <mxGeometry x="1883" y="1167" width="120" height="26" as="geometry"/>
                </mxCell>
                <mxCell id="124" value="Order Coordinates" style="rounded=0;whiteSpace=wrap;html=1;fontSize=8;fillColor=#18141D;" vertex="1" parent="1">
                    <mxGeometry x="1883" y="1216" width="120" height="26" as="geometry"/>
                </mxCell>
                <mxCell id="125" value="" style="edgeStyle=elbowEdgeStyle;endArrow=classic;html=1;endSize=8;startSize=8;fontSize=8;exitX=1;exitY=0.5;exitDx=0;exitDy=0;snapToPoint=0;noJump=0;strokeColor=#3769C2;entryX=0;entryY=0.5;entryDx=0;entryDy=0;rounded=1;" edge="1" parent="1" source="121" target="106">
                    <mxGeometry width="50" height="50" relative="1" as="geometry">
                        <mxPoint x="1726" y="1776.9999999999998" as="sourcePoint"/>
                        <mxPoint x="1726" y="1826.9999999999998" as="targetPoint"/>
                        <Array as="points">
                            <mxPoint x="2344" y="1865"/>
                        </Array>
                    </mxGeometry>
                </mxCell>
                <mxCell id="126" value="" style="edgeStyle=elbowEdgeStyle;elbow=vertical;endArrow=classic;html=1;endSize=8;startSize=8;fontSize=8;exitX=1;exitY=0.5;exitDx=0;exitDy=0;snapToPoint=0;noJump=0;strokeColor=#3769C2;entryX=1;entryY=0.25;entryDx=0;entryDy=0;" edge="1" parent="1" source="121" target="124">
                    <mxGeometry width="50" height="50" relative="1" as="geometry">
                        <mxPoint x="2018" y="1144.9999999999998" as="sourcePoint"/>
                        <mxPoint x="2018" y="1194.9999999999998" as="targetPoint"/>
                        <Array as="points">
                            <mxPoint x="2027" y="1182"/>
                        </Array>
                    </mxGeometry>
                </mxCell>
                <mxCell id="127" value="Calculate Distance" style="rounded=0;whiteSpace=wrap;html=1;fontSize=8;fillColor=#18141D;" vertex="1" parent="1">
                    <mxGeometry x="1883" y="1262" width="120" height="26" as="geometry"/>
                </mxCell>
                <mxCell id="128" value="" style="edgeStyle=elbowEdgeStyle;elbow=vertical;endArrow=classic;html=1;endSize=8;startSize=8;fontSize=8;exitX=1;exitY=0.5;exitDx=0;exitDy=0;snapToPoint=0;noJump=0;strokeColor=#3769C2;entryX=1;entryY=0.25;entryDx=0;entryDy=0;" edge="1" parent="1" source="121" target="130">
                    <mxGeometry width="50" height="50" relative="1" as="geometry">
                        <mxPoint x="2018" y="1144.9999999999998" as="sourcePoint"/>
                        <mxPoint x="2018" y="1243.9999999999998" as="targetPoint"/>
                        <Array as="points">
                            <mxPoint x="2040" y="1252"/>
                        </Array>
                    </mxGeometry>
                </mxCell>
                <mxCell id="130" value="Celebration" style="rounded=0;whiteSpace=wrap;html=1;fontSize=8;fillColor=#18141D;" vertex="1" parent="1">
                    <mxGeometry x="1883" y="1362" width="120" height="26" as="geometry"/>
                </mxCell>
                <mxCell id="131" value="" style="edgeStyle=elbowEdgeStyle;elbow=vertical;endArrow=classic;html=1;endSize=8;startSize=8;fontSize=8;exitX=1;exitY=0.75;exitDx=0;exitDy=0;snapToPoint=0;noJump=0;strokeColor=#3769C2;entryX=1;entryY=0.5;entryDx=0;entryDy=0;" edge="1" parent="1" source="124" target="127">
                    <mxGeometry width="50" height="50" relative="1" as="geometry">
                        <mxPoint x="2018" y="1144.9999999999998" as="sourcePoint"/>
                        <mxPoint x="2018" y="1194.9999999999998" as="targetPoint"/>
                        <Array as="points">
                            <mxPoint x="2019" y="1260"/>
                        </Array>
                    </mxGeometry>
                </mxCell>
                <mxCell id="139" value="&lt;font style=&quot;font-size: 8px;&quot;&gt;Confetti&lt;/font&gt;" style="swimlane;whiteSpace=wrap;html=1;fontSize=11;" vertex="1" parent="1">
                    <mxGeometry x="2120" y="1290" width="168" height="125" as="geometry"/>
                </mxCell>
                <mxCell id="132" value="Act Animation" style="rounded=0;whiteSpace=wrap;html=1;fontSize=8;fillColor=#18141D;" vertex="1" parent="139">
                    <mxGeometry x="24" y="33.5" width="120" height="26" as="geometry"/>
                </mxCell>
                <mxCell id="140" value="Confetti Generator" style="rounded=0;whiteSpace=wrap;html=1;fontSize=8;fillColor=#18141D;" vertex="1" parent="139">
                    <mxGeometry x="24" y="76.5" width="120" height="26" as="geometry"/>
                </mxCell>
                <mxCell id="143" value="" style="edgeStyle=elbowEdgeStyle;elbow=vertical;endArrow=classic;html=1;endSize=8;startSize=8;fontSize=8;exitX=1;exitY=0.5;exitDx=0;exitDy=0;snapToPoint=0;noJump=0;strokeColor=#3769C2;entryX=1;entryY=0.5;entryDx=0;entryDy=0;" edge="1" parent="139" source="132" target="140">
                    <mxGeometry width="50" height="50" relative="1" as="geometry">
                        <mxPoint x="178" y="46" as="sourcePoint"/>
                        <mxPoint x="178" y="85.5" as="targetPoint"/>
                        <Array as="points">
                            <mxPoint x="162" y="68"/>
                        </Array>
                    </mxGeometry>
                </mxCell>
                <mxCell id="142" value="" style="edgeStyle=elbowEdgeStyle;endArrow=classic;html=1;endSize=8;startSize=8;fontSize=8;snapToPoint=0;noJump=0;strokeColor=#3769C2;entryX=0;entryY=0.5;entryDx=0;entryDy=0;exitX=1;exitY=0.75;exitDx=0;exitDy=0;" edge="1" parent="1" source="130" target="132">
                    <mxGeometry width="50" height="50" relative="1" as="geometry">
                        <mxPoint x="1991" y="1420" as="sourcePoint"/>
                        <mxPoint x="2227" y="1139.38" as="targetPoint"/>
                        <Array as="points">
                            <mxPoint x="2086" y="1358"/>
                        </Array>
                    </mxGeometry>
                </mxCell>
                <mxCell id="144" value="Completion Update" style="rounded=0;whiteSpace=wrap;html=1;fontSize=8;fillColor=#18141D;" vertex="1" parent="1">
                    <mxGeometry x="1883" y="1314" width="120" height="26" as="geometry"/>
                </mxCell>
                <mxCell id="145" value="" style="edgeStyle=elbowEdgeStyle;elbow=vertical;endArrow=classic;html=1;endSize=8;startSize=8;fontSize=8;exitX=1;exitY=0.5;exitDx=0;exitDy=0;snapToPoint=0;noJump=0;strokeColor=#3769C2;entryX=1;entryY=0.5;entryDx=0;entryDy=0;" edge="1" parent="1" source="121" target="144">
                    <mxGeometry width="50" height="50" relative="1" as="geometry">
                        <mxPoint x="2018" y="1145" as="sourcePoint"/>
                        <mxPoint x="2018" y="1383.5" as="targetPoint"/>
                        <Array as="points">
                            <mxPoint x="2034" y="1227"/>
                        </Array>
                    </mxGeometry>
                </mxCell>
                <mxCell id="146" value="" style="edgeStyle=elbowEdgeStyle;elbow=vertical;endArrow=classic;html=1;endSize=8;startSize=8;fontSize=8;exitX=0;exitY=0.5;exitDx=0;exitDy=0;snapToPoint=0;noJump=0;strokeColor=#3769C2;entryX=0;entryY=0.75;entryDx=0;entryDy=0;" edge="1" parent="1" source="130" target="121">
                    <mxGeometry width="50" height="50" relative="1" as="geometry">
                        <mxPoint x="2018" y="1250.5" as="sourcePoint"/>
                        <mxPoint x="2018" y="1290" as="targetPoint"/>
                        <Array as="points">
                            <mxPoint x="1862" y="1246"/>
                        </Array>
                    </mxGeometry>
                </mxCell>
                <mxCell id="147" value="" style="edgeStyle=elbowEdgeStyle;endArrow=classic;html=1;endSize=8;startSize=8;fontSize=8;exitX=1;exitY=0.5;exitDx=0;exitDy=0;snapToPoint=0;noJump=0;strokeColor=#3769C2;entryX=0;entryY=0.5;entryDx=0;entryDy=0;rounded=1;" edge="1" parent="1" source="66" target="120">
                    <mxGeometry width="50" height="50" relative="1" as="geometry">
                        <mxPoint x="1357" y="1857.25" as="sourcePoint"/>
                        <mxPoint x="1644" y="1586" as="targetPoint"/>
                        <Array as="points">
                            <mxPoint x="1524" y="1519"/>
                        </Array>
                    </mxGeometry>
                </mxCell>
                <mxCell id="148" style="sketch=0;html=1;entryX=1;entryY=0.5;entryDx=0;entryDy=0;strokeColor=#FFFFFF;fontSize=8;exitX=0;exitY=0.5;exitDx=0;exitDy=0;" edge="1" parent="1" target="149" source="85">
                    <mxGeometry relative="1" as="geometry">
                        <mxPoint x="744" y="1485.5" as="sourcePoint"/>
                    </mxGeometry>
                </mxCell>
                <mxCell id="149" value="Automatic Sliding" style="rounded=0;whiteSpace=wrap;html=1;fontSize=8;fillColor=#18141D;" vertex="1" parent="1">
                    <mxGeometry x="598" y="1510.5" width="120" height="26" as="geometry"/>
                </mxCell>
                <mxCell id="150" value="" style="edgeStyle=elbowEdgeStyle;endArrow=classic;html=1;endSize=8;startSize=8;fontSize=8;exitX=0;exitY=0.25;exitDx=0;exitDy=0;entryX=1;entryY=0.75;entryDx=0;entryDy=0;snapToPoint=0;noJump=0;strokeColor=#3769C2;rounded=1;" edge="1" parent="1" source="48" target="85">
                    <mxGeometry width="50" height="50" relative="1" as="geometry">
                        <mxPoint x="1100.5" y="1521.125" as="sourcePoint"/>
                        <mxPoint x="863" y="1449.5" as="targetPoint"/>
                    </mxGeometry>
                </mxCell>
                <mxCell id="151" value="" style="edgeStyle=elbowEdgeStyle;endArrow=classic;html=1;endSize=8;startSize=8;fontSize=8;exitX=0;exitY=0.75;exitDx=0;exitDy=0;entryX=1;entryY=0.25;entryDx=0;entryDy=0;snapToPoint=0;noJump=0;strokeColor=#3769C2;rounded=1;" edge="1" parent="1" source="47" target="85">
                    <mxGeometry width="50" height="50" relative="1" as="geometry">
                        <mxPoint x="1100.5" y="1569.875" as="sourcePoint"/>
                        <mxPoint x="863" y="1504.5" as="targetPoint"/>
                    </mxGeometry>
                </mxCell>
                <mxCell id="154" value="Work In Progress" style="ellipse;shape=cloud;whiteSpace=wrap;html=1;fontSize=8;" vertex="1" parent="1">
                    <mxGeometry x="1883" y="1433" width="120" height="80" as="geometry"/>
                </mxCell>
                <mxCell id="155" value="" style="edgeStyle=elbowEdgeStyle;endArrow=classic;html=1;endSize=8;startSize=8;fontSize=8;exitX=1;exitY=0.5;exitDx=0;exitDy=0;snapToPoint=0;noJump=0;strokeColor=#3769C2;entryX=0.048;entryY=0.413;entryDx=0;entryDy=0;rounded=1;entryPerimeter=0;" edge="1" parent="1" source="67" target="154">
                    <mxGeometry width="50" height="50" relative="1" as="geometry">
                        <mxPoint x="1357" y="1895.25" as="sourcePoint"/>
                        <mxPoint x="1932" y="1442.5" as="targetPoint"/>
                        <Array as="points">
                            <mxPoint x="1552" y="1690"/>
                        </Array>
                    </mxGeometry>
                </mxCell>
                <mxCell id="158" value="" style="edgeStyle=elbowEdgeStyle;endArrow=classic;html=1;endSize=8;startSize=8;fontSize=8;exitX=1;exitY=0.5;exitDx=0;exitDy=0;snapToPoint=0;noJump=0;strokeColor=#3769C2;entryX=0;entryY=0.5;entryDx=0;entryDy=0;rounded=1;" edge="1" parent="1" source="68" target="193">
                    <mxGeometry width="50" height="50" relative="1" as="geometry">
                        <mxPoint x="1357" y="1933.25" as="sourcePoint"/>
                        <mxPoint x="1829.0000000000005" y="1564" as="targetPoint"/>
                        <Array as="points">
                            <mxPoint x="1572" y="1756"/>
                        </Array>
                    </mxGeometry>
                </mxCell>
                <mxCell id="160" value="Font Size Slider" style="swimlane;whiteSpace=wrap;html=1;fontSize=8;" vertex="1" parent="1">
                    <mxGeometry x="1629.75" y="1577.5" width="169" height="129" as="geometry"/>
                </mxCell>
                <mxCell id="161" value="Adjist on Percentage" style="rounded=0;whiteSpace=wrap;html=1;fontSize=8;fillColor=#18141D;" vertex="1" parent="160">
                    <mxGeometry x="24.5" y="40" width="120" height="26" as="geometry"/>
                </mxCell>
                <mxCell id="162" value="Revert&amp;nbsp; Font Size" style="rounded=0;whiteSpace=wrap;html=1;fontSize=8;fillColor=#18141D;" vertex="1" parent="160">
                    <mxGeometry x="24.5" y="84" width="120" height="26" as="geometry"/>
                </mxCell>
                <mxCell id="163" value="Filters" style="swimlane;whiteSpace=wrap;html=1;fontSize=8;" vertex="1" parent="1">
                    <mxGeometry x="1629.75" y="1734.5" width="169" height="174" as="geometry"/>
                </mxCell>
                <mxCell id="164" value="Contrast" style="rounded=0;whiteSpace=wrap;html=1;fontSize=8;fillColor=#18141D;" vertex="1" parent="163">
                    <mxGeometry x="24.5" y="40" width="120" height="26" as="geometry"/>
                </mxCell>
                <mxCell id="165" value="Black &amp;amp; White" style="rounded=0;whiteSpace=wrap;html=1;fontSize=8;fillColor=#18141D;" vertex="1" parent="163">
                    <mxGeometry x="24.5" y="84" width="120" height="26" as="geometry"/>
                </mxCell>
                <mxCell id="166" value="Revert Filters" style="rounded=0;whiteSpace=wrap;html=1;fontSize=8;fillColor=#18141D;" vertex="1" parent="163">
                    <mxGeometry x="24.5" y="128" width="120" height="26" as="geometry"/>
                </mxCell>
                <mxCell id="168" value="Text To Speech" style="swimlane;whiteSpace=wrap;html=1;fontSize=8;" vertex="1" parent="1">
                    <mxGeometry x="2050.25" y="1598.5" width="206" height="303" as="geometry"/>
                </mxCell>
                <mxCell id="169" value="Add Speech Listeners" style="rounded=0;whiteSpace=wrap;html=1;fontSize=8;fillColor=#18141D;" vertex="1" parent="168">
                    <mxGeometry x="43" y="39" width="120" height="26" as="geometry"/>
                </mxCell>
                <mxCell id="170" value="Convert to Speech" style="rounded=0;whiteSpace=wrap;html=1;fontSize=8;fillColor=#18141D;" vertex="1" parent="168">
                    <mxGeometry x="43" y="83" width="120" height="26" as="geometry"/>
                </mxCell>
                <mxCell id="171" value="Stop Speech" style="rounded=0;whiteSpace=wrap;html=1;fontSize=8;fillColor=#18141D;" vertex="1" parent="168">
                    <mxGeometry x="43" y="127" width="120" height="26" as="geometry"/>
                </mxCell>
                <mxCell id="172" value="" style="edgeStyle=elbowEdgeStyle;endArrow=classic;html=1;endSize=8;startSize=8;fontSize=8;exitX=1;exitY=0.5;exitDx=0;exitDy=0;snapToPoint=0;noJump=0;strokeColor=#3769C2;entryX=1;entryY=0.5;entryDx=0;entryDy=0;" edge="1" parent="168" source="169" target="170">
                    <mxGeometry width="50" height="50" relative="1" as="geometry">
                        <mxPoint x="291" y="32" as="sourcePoint"/>
                        <mxPoint x="169" y="98" as="targetPoint"/>
                        <Array as="points">
                            <mxPoint x="182" y="73"/>
                        </Array>
                    </mxGeometry>
                </mxCell>
                <mxCell id="173" value="" style="edgeStyle=elbowEdgeStyle;endArrow=classic;html=1;endSize=8;startSize=8;fontSize=8;exitX=1;exitY=0.5;exitDx=0;exitDy=0;snapToPoint=0;noJump=0;strokeColor=#3769C2;entryX=1;entryY=0.5;entryDx=0;entryDy=0;" edge="1" parent="168" source="169" target="171">
                    <mxGeometry width="50" height="50" relative="1" as="geometry">
                        <mxPoint x="175.5" y="69" as="sourcePoint"/>
                        <mxPoint x="175.5" y="113" as="targetPoint"/>
                        <Array as="points">
                            <mxPoint x="190" y="100"/>
                        </Array>
                    </mxGeometry>
                </mxCell>
                <mxCell id="174" value="Mutation Observer" style="rounded=0;whiteSpace=wrap;html=1;fontSize=8;fillColor=#18141D;" vertex="1" parent="168">
                    <mxGeometry x="43" y="171" width="120" height="26" as="geometry"/>
                </mxCell>
                <mxCell id="175" value="Add Class to Nodes with Text" style="rounded=0;whiteSpace=wrap;html=1;fontSize=8;fillColor=#18141D;" vertex="1" parent="168">
                    <mxGeometry x="43" y="215" width="120" height="26" as="geometry"/>
                </mxCell>
                <mxCell id="178" value="" style="edgeStyle=elbowEdgeStyle;endArrow=classic;html=1;endSize=8;startSize=8;fontSize=8;exitX=1;exitY=0.5;exitDx=0;exitDy=0;snapToPoint=0;noJump=0;strokeColor=#3769C2;entryX=1;entryY=0.25;entryDx=0;entryDy=0;" edge="1" parent="168" source="174" target="175">
                    <mxGeometry width="50" height="50" relative="1" as="geometry">
                        <mxPoint x="160.5" y="186" as="sourcePoint"/>
                        <mxPoint x="160.5" y="230" as="targetPoint"/>
                        <Array as="points">
                            <mxPoint x="182" y="205"/>
                        </Array>
                    </mxGeometry>
                </mxCell>
                <mxCell id="179" value="" style="edgeStyle=elbowEdgeStyle;endArrow=classic;html=1;endSize=8;startSize=8;fontSize=8;exitX=0;exitY=0.25;exitDx=0;exitDy=0;snapToPoint=0;noJump=0;strokeColor=#3769C2;entryX=0;entryY=0.5;entryDx=0;entryDy=0;" edge="1" parent="168" source="174" target="169">
                    <mxGeometry width="50" height="50" relative="1" as="geometry">
                        <mxPoint x="205.5" y="99" as="sourcePoint"/>
                        <mxPoint x="205.5" y="143" as="targetPoint"/>
                        <Array as="points">
                            <mxPoint x="15" y="145"/>
                        </Array>
                    </mxGeometry>
                </mxCell>
                <mxCell id="180" value="" style="edgeStyle=elbowEdgeStyle;endArrow=classic;html=1;endSize=4;startSize=8;fontSize=8;snapToPoint=0;noJump=0;strokeColor=#3769C2;jumpSize=6;rounded=0;entryX=0.75;entryY=0;entryDx=0;entryDy=0;elbow=vertical;exitX=0.25;exitY=0;exitDx=0;exitDy=0;" edge="1" parent="168" source="175" target="175">
                    <mxGeometry width="50" height="50" relative="1" as="geometry">
                        <mxPoint x="38.5" y="257" as="sourcePoint"/>
                        <mxPoint x="170.5" y="271" as="targetPoint"/>
                        <Array as="points">
                            <mxPoint x="103.5" y="205"/>
                            <mxPoint x="52.5" y="203"/>
                        </Array>
                    </mxGeometry>
                </mxCell>
                <mxCell id="182" value="" style="edgeStyle=elbowEdgeStyle;endArrow=classic;html=1;endSize=4;startSize=8;fontSize=8;snapToPoint=0;noJump=0;strokeColor=#3769C2;jumpSize=6;rounded=0;entryX=0.25;entryY=1;entryDx=0;entryDy=0;elbow=vertical;exitX=0.75;exitY=1;exitDx=0;exitDy=0;" edge="1" parent="168" source="175" target="175">
                    <mxGeometry width="50" height="50" relative="1" as="geometry">
                        <mxPoint x="136.5" y="250" as="sourcePoint"/>
                        <mxPoint x="76.5" y="250" as="targetPoint"/>
                        <Array as="points">
                            <mxPoint x="103.5" y="251"/>
                            <mxPoint x="157" y="262"/>
                        </Array>
                    </mxGeometry>
                </mxCell>
                <mxCell id="183" value="Has Visible Text" style="rounded=0;whiteSpace=wrap;html=1;fontSize=8;fillColor=#18141D;" vertex="1" parent="168">
                    <mxGeometry x="43" y="259" width="120" height="26" as="geometry"/>
                </mxCell>
                <mxCell id="184" value="" style="edgeStyle=elbowEdgeStyle;endArrow=classic;html=1;endSize=8;startSize=8;fontSize=8;exitX=1;exitY=0.5;exitDx=0;exitDy=0;snapToPoint=0;noJump=0;strokeColor=#3769C2;entryX=1;entryY=0.5;entryDx=0;entryDy=0;" edge="1" parent="168" source="174" target="183">
                    <mxGeometry width="50" height="50" relative="1" as="geometry">
                        <mxPoint x="175.5" y="201" as="sourcePoint"/>
                        <mxPoint x="175.5" y="238.5" as="targetPoint"/>
                        <Array as="points">
                            <mxPoint x="191" y="226"/>
                        </Array>
                    </mxGeometry>
                </mxCell>
                <mxCell id="185" value="" style="edgeStyle=elbowEdgeStyle;endArrow=classic;html=1;endSize=8;startSize=8;fontSize=8;exitX=0;exitY=0.5;exitDx=0;exitDy=0;snapToPoint=0;noJump=0;strokeColor=#3769C2;entryX=-0.001;entryY=0.662;entryDx=0;entryDy=0;entryPerimeter=0;" edge="1" parent="168" source="183" target="174">
                    <mxGeometry width="50" height="50" relative="1" as="geometry">
                        <mxPoint x="55.5" y="194.5" as="sourcePoint"/>
                        <mxPoint x="55.5" y="69" as="targetPoint"/>
                        <Array as="points">
                            <mxPoint x="15" y="233"/>
                        </Array>
                    </mxGeometry>
                </mxCell>
                <mxCell id="189" value="Listeners" style="shape=hexagon;perimeter=hexagonPerimeter2;whiteSpace=wrap;html=1;fixedSize=1;fontSize=8;size=7;" vertex="1" parent="1">
                    <mxGeometry x="1904.75" y="1801.5" width="69" height="40" as="geometry"/>
                </mxCell>
                <mxCell id="191" value="" style="endArrow=classic;html=1;fontSize=8;snapToPoint=0;noJump=0;strokeColor=#3769C2;entryX=0;entryY=0.5;entryDx=0;entryDy=0;rounded=1;exitX=1;exitY=0.5;exitDx=0;exitDy=0;startArrow=classic;startFill=1;endSize=5;startSize=5;" edge="1" parent="1" source="163" target="189">
                    <mxGeometry width="50" height="50" relative="1" as="geometry">
                        <mxPoint x="1832.2499999999995" y="2108" as="sourcePoint"/>
                        <mxPoint x="1938.7499999999995" y="1816.4999999999998" as="targetPoint"/>
                    </mxGeometry>
                </mxCell>
                <mxCell id="192" value="" style="edgeStyle=elbowEdgeStyle;endArrow=classic;html=1;endSize=5;startSize=5;fontSize=8;snapToPoint=0;noJump=0;strokeColor=#3769C2;entryX=0;entryY=0.5;entryDx=0;entryDy=0;rounded=1;exitX=1;exitY=0.5;exitDx=0;exitDy=0;startArrow=classic;startFill=1;" edge="1" parent="1" source="160" target="189">
                    <mxGeometry width="50" height="50" relative="1" as="geometry">
                        <mxPoint x="1832.2500000000005" y="2108" as="sourcePoint"/>
                        <mxPoint x="1940.75" y="1836.5" as="targetPoint"/>
                        <Array as="points">
                            <mxPoint x="1871.75" y="1723.5"/>
                        </Array>
                    </mxGeometry>
                </mxCell>
                <mxCell id="194" value="" style="edgeStyle=elbowEdgeStyle;endArrow=classic;html=1;endSize=5;startSize=5;fontSize=8;snapToPoint=0;noJump=0;strokeColor=#3769C2;entryX=0;entryY=0.5;entryDx=0;entryDy=0;rounded=1;startArrow=classic;startFill=1;exitX=1;exitY=0.5;exitDx=0;exitDy=0;" edge="1" parent="1" source="189" target="168">
                    <mxGeometry width="50" height="50" relative="1" as="geometry">
                        <mxPoint x="1860.25" y="2208.9999999999995" as="sourcePoint"/>
                        <mxPoint x="1929.25" y="1942.5" as="targetPoint"/>
                        <Array as="points">
                            <mxPoint x="2006.25" y="1788.5"/>
                            <mxPoint x="2076.25" y="2010.5"/>
                        </Array>
                    </mxGeometry>
                </mxCell>
                <mxCell id="200" value="" style="group" vertex="1" connectable="0" parent="1">
                    <mxGeometry x="1433" y="2179" width="898" height="306" as="geometry"/>
                </mxCell>
                <mxCell id="197" value="" style="group" vertex="1" connectable="0" parent="200">
                    <mxGeometry y="128.95714285714286" width="405.7408637873754" height="177.04285714285712" as="geometry"/>
                </mxCell>
                <mxCell id="103" value="" style="endArrow=none;html=1;endSize=8;startSize=8;fontSize=8;snapToPoint=0;noJump=0;strokeColor=#3769C2;rounded=1;edgeStyle=elbowEdgeStyle;elbow=vertical;endFill=0;" edge="1" parent="197">
                    <mxGeometry width="50" height="50" relative="1" as="geometry">
                        <mxPoint x="2.9833887043189367" y="35.24075829383886" as="sourcePoint"/>
                        <mxPoint x="897.9999999999999" y="-29.507142857142853" as="targetPoint"/>
                        <Array as="points">
                            <mxPoint x="405.7408637873754" y="177.04285714285712"/>
                        </Array>
                    </mxGeometry>
                </mxCell>
                <mxCell id="196" value="" style="edgeStyle=elbowEdgeStyle;endArrow=none;html=1;endSize=8;startSize=8;fontSize=8;snapToPoint=0;noJump=0;strokeColor=#3769C2;exitX=1;exitY=0.5;exitDx=0;exitDy=0;rounded=1;endFill=0;" edge="1" parent="197" source="74">
                    <mxGeometry width="50" height="50" relative="1" as="geometry">
                        <mxPoint x="-39.778516057585826" y="-54.53926878808395" as="sourcePoint"/>
                        <mxPoint x="2.9833887043189367" y="35.24075829383886" as="targetPoint"/>
                        <Array as="points">
                            <mxPoint x="2.9833887043189367" y="34.40169262017603"/>
                            <mxPoint x="2.9833887043189367" y="23.49383886255924"/>
                            <mxPoint/>
                        </Array>
                    </mxGeometry>
                </mxCell>
                <mxCell id="199" value="" style="edgeStyle=elbowEdgeStyle;endArrow=none;html=1;endSize=8;startSize=8;fontSize=8;snapToPoint=0;noJump=0;strokeColor=#3769C2;rounded=1;endFill=0;startArrow=classic;startFill=1;" edge="1" parent="200">
                    <mxGeometry width="50" height="50" relative="1" as="geometry">
                        <mxPoint x="940.7619047619048" y="1.0928571428571427" as="sourcePoint"/>
                        <mxPoint x="898" y="99.44999999999999" as="targetPoint"/>
                        <Array as="points">
                            <mxPoint x="898"/>
                            <mxPoint x="845.2934662236989" y="169.66348171970202"/>
                            <mxPoint x="842.3100775193799" y="146.16964285714283"/>
                        </Array>
                    </mxGeometry>
                </mxCell>
                <mxCell id="100" value="Recenter (FlyTo)" style="rounded=0;whiteSpace=wrap;html=1;fontSize=8;fillColor=#18141D;" vertex="1" parent="200">
                    <mxGeometry x="27" y="25" width="120" height="26" as="geometry"/>
                </mxCell>
                <mxCell id="201" value="" style="shape=internalStorage;whiteSpace=wrap;html=1;backgroundOutline=1;fontSize=11;dx=5;dy=5;" vertex="1" parent="1">
                    <mxGeometry x="1829" y="1986" width="228" height="141" as="geometry"/>
                </mxCell>
                <mxCell id="202" value="Language Change Listener" style="rounded=0;whiteSpace=wrap;html=1;fontSize=8;fillColor=#18141D;" vertex="1" parent="1">
                    <mxGeometry x="1883" y="2001" width="120" height="26" as="geometry"/>
                </mxCell>
                <mxCell id="203" value="Handle Change" style="rounded=0;whiteSpace=wrap;html=1;fontSize=8;fillColor=#18141D;" vertex="1" parent="1">
                    <mxGeometry x="1883" y="2046" width="120" height="26" as="geometry"/>
                </mxCell>
                <mxCell id="204" value="Reset Settings Menu" style="rounded=0;whiteSpace=wrap;html=1;fontSize=8;fillColor=#18141D;" vertex="1" parent="1">
                    <mxGeometry x="1883" y="2091" width="120" height="26" as="geometry"/>
                </mxCell>
                <mxCell id="206" value="" style="edgeStyle=elbowEdgeStyle;elbow=vertical;endArrow=classic;html=1;endSize=8;startSize=8;fontSize=8;exitX=1;exitY=0.5;exitDx=0;exitDy=0;snapToPoint=0;noJump=0;strokeColor=#3769C2;entryX=1;entryY=0.25;entryDx=0;entryDy=0;" edge="1" parent="1" source="202" target="203">
                    <mxGeometry width="50" height="50" relative="1" as="geometry">
                        <mxPoint x="2024" y="2040.25" as="sourcePoint"/>
                        <mxPoint x="2024" y="2079.75" as="targetPoint"/>
                        <Array as="points">
                            <mxPoint x="2025" y="2032"/>
                        </Array>
                    </mxGeometry>
                </mxCell>
                <mxCell id="207" value="" style="edgeStyle=elbowEdgeStyle;elbow=vertical;endArrow=classic;html=1;endSize=8;startSize=8;fontSize=8;exitX=1;exitY=0.75;exitDx=0;exitDy=0;snapToPoint=0;noJump=0;strokeColor=#3769C2;entryX=1;entryY=0.5;entryDx=0;entryDy=0;" edge="1" parent="1" source="203" target="204">
                    <mxGeometry width="50" height="50" relative="1" as="geometry">
                        <mxPoint x="2036" y="2064.75" as="sourcePoint"/>
                        <mxPoint x="2036" y="2104.25" as="targetPoint"/>
                        <Array as="points">
                            <mxPoint x="2026" y="2087"/>
                        </Array>
                    </mxGeometry>
                </mxCell>
                <mxCell id="208" value="" style="edgeStyle=elbowEdgeStyle;endArrow=classic;html=1;endSize=8;startSize=8;fontSize=8;exitX=1;exitY=0.5;exitDx=0;exitDy=0;snapToPoint=0;noJump=0;strokeColor=#3769C2;entryX=0;entryY=0.5;entryDx=0;entryDy=0;rounded=1;" edge="1" parent="1" source="69" target="201">
                    <mxGeometry width="50" height="50" relative="1" as="geometry">
                        <mxPoint x="1357" y="1895.25" as="sourcePoint"/>
                        <mxPoint x="1844" y="1268.0000000000002" as="targetPoint"/>
                        <Array as="points">
                            <mxPoint x="1438" y="2039"/>
                        </Array>
                    </mxGeometry>
                </mxCell>
            </root>
        </mxGraphModel>
    </diagram>
</mxfile>